G75*
%MOIN*%
%OFA0B0*%
%FSLAX24Y24*%
%IPPOS*%
%LPD*%
%AMOC8*
5,1,8,0,0,1.08239X$1,22.5*
%
%ADD10C,0.0479*%
%ADD11R,0.0680X0.0680*%
%ADD12C,0.0519*%
%ADD13OC8,0.1655*%
%ADD14OC8,0.0479*%
%ADD15OC8,0.0700*%
%ADD16C,0.0700*%
%ADD17OC8,0.1280*%
%ADD18R,0.0580X0.0580*%
%ADD19C,0.1858*%
D10*
X006100Y007401D02*
X006100Y007799D01*
X007100Y007799D02*
X007100Y007401D01*
X008100Y007401D02*
X008100Y007799D01*
X009100Y007799D02*
X009100Y007401D01*
X010100Y007401D02*
X010100Y007799D01*
X011100Y007799D02*
X011100Y007401D01*
X012100Y007401D02*
X012100Y007799D01*
X013100Y007799D02*
X013100Y007401D01*
X014100Y007401D02*
X014100Y007799D01*
X015100Y007799D02*
X015100Y007401D01*
X016100Y007401D02*
X016100Y007799D01*
X017100Y007799D02*
X017100Y007401D01*
X018100Y007401D02*
X018100Y007799D01*
X019100Y007799D02*
X019100Y007401D01*
X020100Y007401D02*
X020100Y007799D01*
X021100Y007799D02*
X021100Y007401D01*
X022100Y007401D02*
X022100Y007799D01*
X023100Y007799D02*
X023100Y007401D01*
X024100Y007401D02*
X024100Y007799D01*
X025100Y007799D02*
X025100Y007401D01*
X025100Y013401D02*
X025100Y013799D01*
X024100Y013799D02*
X024100Y013401D01*
X023100Y013401D02*
X023100Y013799D01*
X022100Y013799D02*
X022100Y013401D01*
X021100Y013401D02*
X021100Y013799D01*
X020100Y013799D02*
X020100Y013401D01*
X019100Y013401D02*
X019100Y013799D01*
X018100Y013799D02*
X018100Y013401D01*
X017100Y013401D02*
X017100Y013799D01*
X016100Y013799D02*
X016100Y013401D01*
X015100Y013401D02*
X015100Y013799D01*
X014100Y013799D02*
X014100Y013401D01*
X013100Y013401D02*
X013100Y013799D01*
X012100Y013799D02*
X012100Y013401D01*
X011100Y013401D02*
X011100Y013799D01*
X010100Y013799D02*
X010100Y013401D01*
X009100Y013401D02*
X009100Y013799D01*
X008100Y013799D02*
X008100Y013401D01*
X007100Y013401D02*
X007100Y013799D01*
X006100Y013799D02*
X006100Y013401D01*
D11*
X006100Y020100D03*
X005100Y020100D03*
X007100Y020100D03*
X008100Y020100D03*
X009100Y020100D03*
X010100Y020100D03*
X011100Y020100D03*
X012100Y020100D03*
X014100Y020100D03*
X015100Y020100D03*
X016600Y020100D03*
X017600Y020100D03*
X018600Y020100D03*
X019600Y020100D03*
X020600Y020100D03*
X021600Y020100D03*
X027100Y013600D03*
X027100Y012600D03*
X030100Y012850D03*
X031100Y012850D03*
X030850Y010850D03*
X030850Y009850D03*
X030850Y008850D03*
X018600Y005600D03*
X016600Y005600D03*
X014600Y001100D03*
X013600Y001100D03*
X012600Y001100D03*
X011600Y001100D03*
X009600Y001100D03*
X008600Y001100D03*
X007600Y001100D03*
X006600Y001100D03*
X003850Y003600D03*
X001850Y003600D03*
X001850Y006600D03*
X003850Y006600D03*
X020600Y001100D03*
X021600Y001100D03*
X022600Y001100D03*
X024600Y001100D03*
X025600Y001100D03*
D12*
X027881Y008100D02*
X028319Y008100D01*
X028319Y009100D02*
X027881Y009100D01*
X027881Y010100D02*
X028319Y010100D01*
D13*
X030281Y006450D03*
X029100Y004600D03*
X031462Y004600D03*
D14*
X002100Y002100D03*
X005100Y002100D03*
X005100Y004100D03*
X006100Y004100D03*
X004100Y010100D03*
X004100Y013100D03*
X016100Y004100D03*
X019100Y004100D03*
X019100Y002100D03*
X016100Y002100D03*
X023600Y004100D03*
X023600Y006100D03*
D15*
X028600Y001350D03*
D16*
X027600Y001350D03*
D17*
X031572Y015195D03*
X031572Y019936D03*
D18*
X030506Y018053D03*
X029718Y018053D03*
X029718Y017069D03*
X030506Y017069D03*
D19*
X032100Y001100D03*
X001600Y010600D03*
X001600Y017600D03*
M02*
