%
M48
M72
T01C0.0320
T02C0.0360
T03C0.0394
T04C0.0480
T05C0.1000
T06C0.1181
T07C0.1378
%
T01
X2100Y2100
X5100Y2100
X5100Y4100
X6100Y4100
X6100Y7600
X7100Y7600
X8100Y7600
X9100Y7600
X10100Y7600
X11100Y7600
X12100Y7600
X13100Y7600
X14100Y7600
X15100Y7600
X16100Y7600
X17100Y7600
X18100Y7600
X19100Y7600
X20100Y7600
X21100Y7600
X22100Y7600
X23100Y7600
X24100Y7600
X25100Y7600
X23600Y6100
X23600Y4100
X19100Y4100
X16100Y4100
X16100Y2100
X19100Y2100
X27600Y1350
X28600Y1350
X25100Y13600
X24100Y13600
X23100Y13600
X22100Y13600
X21100Y13600
X20100Y13600
X19100Y13600
X18100Y13600
X17100Y13600
X16100Y13600
X15100Y13600
X14100Y13600
X13100Y13600
X12100Y13600
X11100Y13600
X10100Y13600
X9100Y13600
X8100Y13600
X7100Y13600
X6100Y13600
X4100Y13100
X4100Y10100
T02
X28100Y10100
X28100Y9100
X28100Y8100
T03
X29718Y17069
X30506Y17069
X30506Y18053
X29718Y18053
T04
X27100Y13600
X27100Y12600
X30100Y12850
X31100Y12850
X30850Y10850
X30850Y9850
X30850Y8850
X18600Y5600
X16600Y5600
X14600Y1100
X13600Y1100
X12600Y1100
X11600Y1100
X9600Y1100
X8600Y1100
X7600Y1100
X6600Y1100
X3850Y3600
X1850Y3600
X1850Y6600
X3850Y6600
X20600Y1100
X21600Y1100
X22600Y1100
X24600Y1100
X25600Y1100
X21600Y20100
X20600Y20100
X19600Y20100
X18600Y20100
X17600Y20100
X16600Y20100
X15100Y20100
X14100Y20100
X12100Y20100
X11100Y20100
X10100Y20100
X9100Y20100
X8100Y20100
X7100Y20100
X6100Y20100
X5100Y20100
T05
X31572Y19936
X31572Y15195
T06
X30281Y6450
X29100Y4600
X31462Y4600
T07
X32100Y1100
X1600Y10600
X1600Y17600
M30
