G75*
%MOIN*%
%OFA0B0*%
%FSLAX24Y24*%
%IPPOS*%
%LPD*%
%AMOC8*
5,1,8,0,0,1.08239X$1,22.5*
%
%ADD10C,0.0000*%
%ADD11C,0.0399*%
%ADD12R,0.0600X0.0600*%
%ADD13C,0.0439*%
%ADD14OC8,0.1575*%
%ADD15OC8,0.0399*%
%ADD16OC8,0.0620*%
%ADD17C,0.0620*%
%ADD18OC8,0.1200*%
%ADD19R,0.0500X0.0500*%
%ADD20C,0.0118*%
%ADD21C,0.0100*%
%ADD22C,0.1778*%
D10*
X001100Y000600D02*
X001600Y000100D01*
X032600Y000100D01*
X033100Y000600D01*
X033100Y020850D01*
X032600Y021346D01*
X001600Y021350D01*
X001104Y020846D01*
X001096Y019596D01*
X000100Y018600D01*
X000100Y008600D01*
X001100Y007600D01*
X001100Y000600D01*
X001096Y019596D02*
X001100Y019600D01*
D11*
X006100Y013799D02*
X006100Y013401D01*
X007100Y013401D02*
X007100Y013799D01*
X008100Y013799D02*
X008100Y013401D01*
X009100Y013401D02*
X009100Y013799D01*
X010100Y013799D02*
X010100Y013401D01*
X011100Y013401D02*
X011100Y013799D01*
X012100Y013799D02*
X012100Y013401D01*
X013100Y013401D02*
X013100Y013799D01*
X014100Y013799D02*
X014100Y013401D01*
X015100Y013401D02*
X015100Y013799D01*
X016100Y013799D02*
X016100Y013401D01*
X017100Y013401D02*
X017100Y013799D01*
X018100Y013799D02*
X018100Y013401D01*
X019100Y013401D02*
X019100Y013799D01*
X020100Y013799D02*
X020100Y013401D01*
X021100Y013401D02*
X021100Y013799D01*
X022100Y013799D02*
X022100Y013401D01*
X023100Y013401D02*
X023100Y013799D01*
X024100Y013799D02*
X024100Y013401D01*
X025100Y013401D02*
X025100Y013799D01*
X025100Y007799D02*
X025100Y007401D01*
X024100Y007401D02*
X024100Y007799D01*
X023100Y007799D02*
X023100Y007401D01*
X022100Y007401D02*
X022100Y007799D01*
X021100Y007799D02*
X021100Y007401D01*
X020100Y007401D02*
X020100Y007799D01*
X019100Y007799D02*
X019100Y007401D01*
X018100Y007401D02*
X018100Y007799D01*
X017100Y007799D02*
X017100Y007401D01*
X016100Y007401D02*
X016100Y007799D01*
X015100Y007799D02*
X015100Y007401D01*
X014100Y007401D02*
X014100Y007799D01*
X013100Y007799D02*
X013100Y007401D01*
X012100Y007401D02*
X012100Y007799D01*
X011100Y007799D02*
X011100Y007401D01*
X010100Y007401D02*
X010100Y007799D01*
X009100Y007799D02*
X009100Y007401D01*
X008100Y007401D02*
X008100Y007799D01*
X007100Y007799D02*
X007100Y007401D01*
X006100Y007401D02*
X006100Y007799D01*
D12*
X003850Y006600D03*
X001850Y006600D03*
X001850Y003600D03*
X003850Y003600D03*
X006600Y001100D03*
X007600Y001100D03*
X008600Y001100D03*
X009600Y001100D03*
X011600Y001100D03*
X012600Y001100D03*
X013600Y001100D03*
X014600Y001100D03*
X020600Y001100D03*
X021600Y001100D03*
X022600Y001100D03*
X024600Y001100D03*
X025600Y001100D03*
X018600Y005600D03*
X016600Y005600D03*
X027100Y012600D03*
X027100Y013600D03*
X030100Y012850D03*
X031100Y012850D03*
X030850Y010850D03*
X030850Y009850D03*
X030850Y008850D03*
X021600Y020100D03*
X020600Y020100D03*
X019600Y020100D03*
X018600Y020100D03*
X017600Y020100D03*
X016600Y020100D03*
X015100Y020100D03*
X014100Y020100D03*
X012100Y020100D03*
X011100Y020100D03*
X010100Y020100D03*
X009100Y020100D03*
X008100Y020100D03*
X007100Y020100D03*
X006100Y020100D03*
X005100Y020100D03*
D13*
X027881Y010100D02*
X028319Y010100D01*
X028319Y009100D02*
X027881Y009100D01*
X027881Y008100D02*
X028319Y008100D01*
D14*
X030281Y006450D03*
X029100Y004600D03*
X031462Y004600D03*
D15*
X023600Y004100D03*
X023600Y006100D03*
X019100Y004100D03*
X016100Y004100D03*
X016100Y002100D03*
X019100Y002100D03*
X006100Y004100D03*
X005100Y004100D03*
X005100Y002100D03*
X002100Y002100D03*
X004100Y010100D03*
X004100Y013100D03*
D16*
X028600Y001350D03*
D17*
X027600Y001350D03*
D18*
X031572Y015195D03*
X031572Y019936D03*
D19*
X030506Y018053D03*
X029718Y018053D03*
X029718Y017069D03*
X030506Y017069D03*
D20*
X027100Y013600D02*
X025100Y013600D01*
X024100Y013600D02*
X024100Y013100D01*
X024600Y012600D01*
X027100Y012600D01*
X023600Y012600D02*
X022100Y012600D01*
X022100Y013600D01*
X023100Y013600D02*
X023100Y015100D01*
X023100Y007600D02*
X023600Y006600D01*
X023600Y006100D01*
X024600Y006100D02*
X024600Y001100D01*
X025600Y001100D02*
X025600Y006100D01*
X025100Y007600D01*
X024100Y007600D02*
X024600Y006100D01*
X022600Y005600D02*
X022600Y001100D01*
X021600Y001100D02*
X021600Y005600D01*
X021100Y006100D01*
X021100Y007600D01*
X020100Y007600D02*
X020100Y006100D01*
X020600Y005600D01*
X020600Y001100D01*
X019100Y004100D02*
X018600Y004600D01*
X018600Y005600D01*
X019100Y006100D01*
X019100Y007600D01*
X018100Y007600D02*
X018100Y006600D01*
X017100Y005600D01*
X016600Y005600D01*
X016600Y004600D01*
X016100Y004100D01*
X014600Y005600D02*
X014600Y001100D01*
X013600Y001100D02*
X013600Y005600D01*
X014100Y006100D01*
X014100Y007600D01*
X013100Y007600D02*
X013100Y006100D01*
X012600Y005600D01*
X012600Y001100D01*
X011600Y001100D02*
X011600Y005600D01*
X012100Y006100D01*
X012100Y007600D01*
X015100Y007600D02*
X015100Y006100D01*
X014600Y005600D01*
X022100Y006100D02*
X022600Y005600D01*
X022100Y006100D02*
X022100Y007600D01*
D21*
X022600Y008100D02*
X022600Y009600D01*
X029600Y009600D01*
X029600Y012600D01*
X030100Y013100D01*
X030100Y012850D01*
X030100Y013600D01*
X032100Y013600D01*
X032100Y005100D01*
X031600Y004600D01*
X031462Y004600D01*
X031100Y004600D01*
X031100Y004100D01*
X028600Y001350D01*
X027600Y001350D02*
X027600Y000600D01*
X029600Y000600D01*
X032600Y004100D01*
X032600Y020600D01*
X032350Y020850D01*
X014600Y020850D01*
X014100Y020100D01*
X014100Y013600D01*
X014100Y013100D01*
X013600Y012600D01*
X005100Y012600D01*
X004600Y013100D01*
X004100Y013100D01*
X006100Y013600D02*
X006100Y019100D01*
X005100Y020100D01*
X006100Y020100D02*
X007100Y019100D01*
X007100Y013600D01*
X008100Y013600D02*
X008100Y019100D01*
X007100Y020100D01*
X008100Y020100D02*
X009100Y019100D01*
X009100Y013600D01*
X010100Y013600D02*
X010100Y019100D01*
X009100Y020100D01*
X010100Y020100D02*
X011100Y019100D01*
X011100Y013600D01*
X012100Y013600D02*
X012100Y019100D01*
X011100Y020100D01*
X012100Y020100D02*
X013100Y019100D01*
X013100Y013600D01*
X015100Y013600D02*
X015100Y020100D01*
X016100Y019600D02*
X016100Y013600D01*
X017100Y013600D02*
X017100Y019600D01*
X017600Y020100D01*
X018100Y019600D02*
X018100Y013600D01*
X019100Y013600D02*
X019100Y019600D01*
X019600Y020100D01*
X020100Y019600D02*
X020100Y013600D01*
X021100Y013600D02*
X021100Y019600D01*
X021600Y020100D01*
X020600Y020100D02*
X020100Y019600D01*
X018600Y020100D02*
X018100Y019600D01*
X016600Y020100D02*
X016100Y019600D01*
X021600Y016100D02*
X025100Y018100D01*
X029100Y018100D01*
X029718Y018053D01*
X030506Y018053D02*
X030600Y018600D01*
X031600Y018600D01*
X031600Y017100D01*
X030850Y015850D01*
X030100Y015100D01*
X030100Y013600D01*
X031100Y012850D02*
X031100Y012100D01*
X030850Y010850D01*
X031600Y010600D01*
X031600Y008350D01*
X030600Y007600D01*
X029100Y007600D01*
X029100Y004600D01*
X029100Y008100D02*
X028100Y008100D01*
X028100Y009100D02*
X027100Y008600D01*
X027100Y001100D01*
X027600Y000600D01*
X023600Y004100D02*
X023600Y005100D01*
X023100Y005600D01*
X022600Y006600D01*
X022600Y008100D01*
X022100Y008600D01*
X019600Y008600D01*
X019600Y003600D01*
X019100Y003100D01*
X019100Y002100D01*
X016100Y002100D01*
X016100Y003100D01*
X015600Y003600D01*
X015600Y006100D01*
X015600Y011100D01*
X014600Y011600D01*
X004100Y011600D01*
X002850Y009600D01*
X002850Y006600D01*
X002100Y004600D01*
X001850Y004350D01*
X001850Y003600D01*
X002100Y003100D01*
X002100Y002100D01*
X005100Y002100D02*
X005100Y004100D01*
X006100Y004100D02*
X006600Y005600D01*
X006600Y008100D01*
X007100Y008600D01*
X011100Y008600D01*
X011100Y007600D01*
X010100Y007600D02*
X010100Y001600D01*
X009600Y001100D01*
X009100Y001600D02*
X009100Y007600D01*
X008100Y007600D02*
X008100Y001600D01*
X007600Y001100D01*
X007100Y001600D02*
X007100Y007600D01*
X006100Y007600D02*
X004100Y009600D01*
X004100Y008100D01*
X003850Y007850D01*
X003850Y006600D01*
X004100Y009600D02*
X004100Y010100D01*
X015600Y006100D02*
X017100Y007600D01*
X021600Y011100D02*
X022100Y010600D01*
X027100Y010600D01*
X027600Y010100D01*
X028100Y010100D01*
X029600Y009600D02*
X030350Y009600D01*
X030850Y009850D01*
X030850Y008850D02*
X029100Y008100D01*
X023600Y012600D02*
X023600Y014600D01*
X027600Y014600D01*
X030475Y016600D01*
X030506Y017069D01*
X029718Y017069D02*
X029100Y017100D01*
X027100Y017100D01*
X024600Y015600D01*
X023100Y015100D01*
X021600Y016100D02*
X021600Y011100D01*
X009100Y001600D02*
X008600Y001100D01*
X007100Y001600D02*
X006600Y001100D01*
D22*
X001600Y010600D03*
X001600Y017600D03*
X032100Y001100D03*
M02*
